<svg>
  <defs>
    <symbol id="logo"
      xmlns="http://www.w3.org/2000/svg">
      <svg width="50" height="50" viewBox="0 0 50 50" fill="none">
        <circle cx="25" cy="25" r="25" fill="black"/>
        <path fill-rule="evenodd" clip-rule="evenodd" d="M23.1382 14C22.4933 14 22.0571 14.5621 22.0571 15.1149V32.8767C22.0571 33.4295 22.4933 34 23.1382 34H26.3815C27.0264 34 27.4625 33.4295 27.4625 32.8767V15.1149C27.4625 14.5621 27.0264 14 26.3815 14H23.1382ZM23.6787 15.6216H25.8409V17.7837H23.6787V15.6216ZM16.0811 16.1621C15.4962 16.1621 15 16.6583 15 17.2432V32.9189C15 33.5038 15.4962 33.9999 16.0811 33.9999H19.3243C19.9092 33.9999 20.4054 33.5038 20.4054 32.9189V17.2432C20.4054 16.6583 19.9092 16.1621 19.3243 16.1621H16.0811ZM16.6216 17.7838H18.7837V19.4054H16.6216V17.7838ZM23.6787 19.4054H25.8409V28.5946H23.6787V19.4054ZM16.6216 21.027H18.7837V29.1351H16.6216V21.027ZM23.6787 30.2162H25.8409V32.3783H23.6787V30.2162ZM16.6216 30.7567H18.7837V32.3783H16.6216V30.7567ZM32.1523 30.698L34.2849 30.3414L34.5523 31.9409L32.4197 32.2974L32.1523 30.698ZM32.9478 22.3444L34.0174 28.742L31.8848 29.0986L30.8152 22.7009L32.9478 22.3444ZM30.2805 19.5021L32.4131 19.1455L32.6805 20.7449L30.5479 21.1015L30.2805 19.5021ZM29.4798 17.9918C28.9325 18.0833 28.4876 18.6129 28.5876 19.2114L30.9122 33.1147C31.0122 33.7132 31.6067 34.0775 32.1539 33.986L35.3528 33.4512C35.9001 33.3597 36.3436 32.8218 36.2436 32.2233L33.919 18.32C33.819 17.7215 33.226 17.3655 32.6787 17.457L29.4798 17.9918Z" fill="white"/>
      </svg>
    </symbol>
    <symbol id="people"
      xmlns="http://www.w3.org/2000/svg">
      <svg width="24" height="24" viewBox="0 0 24 24" fill="none">
        <path fill-rule="evenodd" clip-rule="evenodd" d="M13.4659 19C13.8847 19 14.2243 18.6593 14.2243 18.2391C14.2243 17.1103 13.8931 16.059 13.323 15.1778C14.0477 14.5265 15.005 14.1304 16.0545 14.1304C18.3163 14.1304 20.1499 15.97 20.1499 18.2391C20.1499 18.6593 20.4894 19 20.9083 19C21.3271 19 21.6667 18.6593 21.6667 18.2391C21.6667 15.1295 19.154 12.6087 16.0545 12.6087C14.6269 12.6087 13.3238 13.1435 12.3333 14.0243C11.3429 13.1435 10.0398 12.6087 8.61213 12.6087C5.51264 12.6087 3 15.1295 3 18.2391C3 18.6593 3.33955 19 3.7584 19C4.17725 19 4.51679 18.6593 4.51679 18.2391C4.51679 15.97 6.35034 14.1304 8.61213 14.1304C9.66164 14.1304 10.6189 14.5265 11.3436 15.1778C10.7735 16.059 10.4424 17.1103 10.4424 18.2391C10.4424 18.6593 10.7819 19 11.2008 19C11.6196 19 11.9592 18.6593 11.9592 18.2391C11.9592 17.6258 12.0932 17.0438 12.3333 16.5211C12.5735 17.0438 12.7075 17.6258 12.7075 18.2391C12.7075 18.6593 13.047 19 13.4659 19ZM8.61213 12C6.68542 12 5.12351 10.433 5.12351 8.5C5.12351 6.567 6.68542 5 8.61213 5C10.5388 5 12.1008 6.567 12.1008 8.5C12.1008 10.433 10.5388 12 8.61213 12ZM8.61213 10.4783C9.70115 10.4783 10.584 9.59256 10.584 8.5C10.584 7.40744 9.70115 6.52174 8.61213 6.52174C7.52312 6.52174 6.6403 7.40744 6.6403 8.5C6.6403 9.59256 7.52312 10.4783 8.61213 10.4783ZM16.0545 10.4783C17.1435 10.4783 18.0264 9.59256 18.0264 8.5C18.0264 7.40744 17.1435 6.52174 16.0545 6.52174C14.9655 6.52174 14.0827 7.40744 14.0827 8.5C14.0827 9.59256 14.9655 10.4783 16.0545 10.4783ZM16.0545 12C14.1278 12 12.5659 10.433 12.5659 8.5C12.5659 6.567 14.1278 5 16.0545 5C17.9812 5 19.5432 6.567 19.5432 8.5C19.5432 10.433 17.9812 12 16.0545 12Z" fill="currentColor"/>
      </svg>
    </symbol>
    <symbol id="like"
      xmlns="http://www.w3.org/2000/svg">
      <svg width="24" height="24" viewBox="0 0 24 24" fill="none">
        <path fill-rule="evenodd" clip-rule="evenodd" d="M12.3639 19L18.4542 13.2819C19.2727 12.4841 19.7333 11.3961 19.7333 10.2608C19.7333 9.12548 19.2727 8.03745 18.4542 7.23969C16.7692 5.60758 14.0778 5.58411 12.3639 7.1866C10.647 5.58714 7.95552 5.61546 6.27355 7.25068C5.45657 8.0499 4.99792 9.13876 5.00001 10.2741C5.0021 11.4094 5.46477 12.4966 6.28468 13.2929L12.3639 19ZM7.31798 8.28518C7.92863 7.68507 8.77925 7.38605 9.63677 7.47005C10.4943 7.55405 11.2688 8.01226 11.748 8.71912L12.3639 9.6346L12.9798 8.71912C13.0884 8.56256 13.2127 8.41718 13.3508 8.28518C14.4778 7.19368 16.2828 7.19368 17.4098 8.28518C17.9448 8.80594 18.2468 9.51599 18.2489 10.2576C18.251 10.9992 17.9529 11.7109 17.4209 12.2346L12.3639 16.9786L7.31798 12.2401C6.78278 11.7176 6.48162 11.0056 6.48162 10.2626C6.48162 9.51968 6.78278 8.80762 7.31798 8.28518Z" fill="currentColor"/>
      </svg>
    </symbol>
    <symbol id="cart"
      xmlns="http://www.w3.org/2000/svg">
      <svg width="18" height="18" viewBox="0 0 18 18" fill="none">
        <path fill-rule="evenodd" clip-rule="evenodd" d="M14.6659 10.0176L5.17955 10.9767C4.92152 11.0024 4.6953 11.2526 4.6953 11.5117C4.6953 11.7465 4.88636 11.9377 5.12121 11.9377H14.602C14.9553 11.9377 15.2412 12.2239 15.2412 12.5768C15.2412 12.9297 14.9553 13.2161 14.602 13.2161H5.12121C5.1103 13.2161 5.09924 13.2158 5.08833 13.2152C4.175 13.1977 3.43545 12.4582 3.41803 11.5448C3.41758 11.5338 3.41727 11.5227 3.41727 11.5118C3.41727 11.0685 3.58606 10.6377 3.89273 10.2988C4.19955 9.95985 4.61121 9.74894 5.05242 9.70485L5.35909 9.67424L3.36288 2.77818H2.13909C1.78606 2.77818 1.5 2.49197 1.5 2.13909C1.5 1.78621 1.78606 1.5 2.13909 1.5H3.84318C4.12773 1.5 4.37803 1.68818 4.45697 1.96136L4.81682 3.20409H14.602C14.9553 3.20409 15.2412 3.49015 15.2412 3.84318V9.38167C15.2412 9.71015 14.9923 9.98485 14.6659 10.0176ZM13.963 4.48227H5.18667L6.65227 9.545L13.963 8.80333V4.48227Z" fill="black"/>
        <path d="M3.73667 16.5C4.50142 16.5 5.12137 15.88 5.12137 15.1153C5.12137 14.3506 4.50142 13.7306 3.73667 13.7306C2.97193 13.7306 2.35198 14.3506 2.35198 15.1153C2.35198 15.88 2.97193 16.5 3.73667 16.5Z" fill="black"/>
        <path d="M13.8565 16.5C14.6213 16.5 15.2412 15.88 15.2412 15.1153C15.2412 14.3506 14.6213 13.7306 13.8565 13.7306C13.0918 13.7306 12.4718 14.3506 12.4718 15.1153C12.4718 15.88 13.0918 16.5 13.8565 16.5Z" fill="black"/>
      </svg>
    </symbol>
    <symbol id="search"
      xmlns="http://www.w3.org/2000/svg">
      <svg width="24" height="24" viewBox="0 0 24 24" fill="none">
        <path fill-rule="evenodd" clip-rule="evenodd" d="M11.2818 18.7779C12.8124 18.7779 14.2253 18.2599 15.3556 17.4122L18.1578 20.2144L19.5 18.8721L16.6978 16.0699C17.5455 14.9396 18.0636 13.5268 18.0636 11.9961C18.0636 8.25203 15.0259 5.21436 11.2818 5.21436C7.53768 5.21436 4.5 8.25203 4.5 11.9961C4.5 15.7403 7.53768 18.7779 11.2818 18.7779ZM11.2818 7.09819C13.9898 7.09819 16.1797 9.28814 16.1797 11.9961C16.1797 14.7042 13.9898 16.8941 11.2818 16.8941C8.57378 16.8941 6.38383 14.7042 6.38383 11.9961C6.38383 9.28814 8.57378 7.09819 11.2818 7.09819Z" fill="black"/>
      </svg>
    </symbol>
    <symbol id="logo-light"
      xmlns="http://www.w3.org/2000/svg">
      <svg width="50" height="50" viewBox="0 0 50 50" fill="none">
        <circle cx="25" cy="25" r="25" fill="currentColor"/>
        <path fill-rule="evenodd" clip-rule="evenodd" d="M23.5093 14C22.8644 14 22.4282 14.5621 22.4282 15.1149V32.8767C22.4282 33.4295 22.8644 34 23.5093 34H26.7525C27.3975 34 27.8336 33.4295 27.8336 32.8767V15.1149C27.8336 14.5621 27.3975 14 26.7525 14H23.5093ZM24.0498 15.6216H26.212V17.7837H24.0498V15.6216ZM16.4522 16.1621C15.8673 16.1621 15.3711 16.6583 15.3711 17.2432V32.9189C15.3711 33.5038 15.8673 33.9999 16.4522 33.9999H19.6954C20.2803 33.9999 20.7765 33.5038 20.7765 32.9189V17.2432C20.7765 16.6583 20.2803 16.1621 19.6954 16.1621H16.4522ZM16.9927 17.7838H19.1548V19.4054H16.9927V17.7838ZM24.0498 19.4054H26.212V28.5946H24.0498V19.4054ZM16.9927 21.027H19.1548V29.1351H16.9927V21.027ZM24.0498 30.2162H26.212V32.3783H24.0498V30.2162ZM16.9927 30.7567H19.1548V32.3783H16.9927V30.7567ZM32.5234 30.698L34.656 30.3414L34.9234 31.9409L32.7908 32.2974L32.5234 30.698ZM33.3188 22.3444L34.3885 28.742L32.2559 29.0986L31.1863 22.7009L33.3188 22.3444ZM30.6516 19.5021L32.7842 19.1455L33.0516 20.7449L30.919 21.1015L30.6516 19.5021ZM29.8509 17.9918C29.3036 18.0833 28.8587 18.6129 28.9587 19.2114L31.2833 33.1147C31.3833 33.7132 31.9777 34.0775 32.525 33.986L35.7239 33.4512C36.2712 33.3597 36.7147 32.8218 36.6147 32.2233L34.2901 18.32C34.1901 17.7215 33.597 17.3655 33.0497 17.457L29.8509 17.9918Z" fill="black"/>
      </svg>
    </symbol>
    <symbol id="arrow-right"
      xmlns="http://www.w3.org/2000/svg">
      <svg width="6" height="12" viewBox="0 0 6 12" fill="none">
        <path fill-rule="evenodd" clip-rule="evenodd" d="M0.5 11.0576L0.501541 0.673004L5.5 5.86531L0.5 11.0576Z" fill="black"/>
      </svg>
    </symbol>
    <symbol id="arrow-left"
      xmlns="http://www.w3.org/2000/svg">
      <svg width="6" height="12" viewBox="0 0 6 12" fill="none">
        <path fill-rule="evenodd" clip-rule="evenodd" d="M5.5 11.0576L5.49846 0.673004L0.5 5.86531L5.5 11.0576Z" fill="black"/>
      </svg>
    </symbol>
    <symbol id="back"
      xmlns="http://www.w3.org/2000/svg">
      <svg width="18" height="18" viewBox="0 0 18 18" fill="none">
        <path fill-rule="evenodd" clip-rule="evenodd" d="M15 9.96139V8.65035H5.53007L9.50338 4.67704L8.57634 3.75L3.67599 8.65035L3 9.30587L3.67599 9.96139L8.57634 14.8617L9.50338 13.9347L5.53007 9.96139H15Z" fill="black"/>
      </svg>
    </symbol>
    <symbol id="cart-white"
      xmlns="http://www.w3.org/2000/svg">
      <svg width="24" height="24" viewBox="0 0 24 24" fill="none">
        <path fill-rule="evenodd" clip-rule="evenodd" d="M19.5545 13.3568L6.90606 14.6356C6.56202 14.6699 6.2604 15.0034 6.2604 15.3489C6.2604 15.662 6.51515 15.917 6.82828 15.917H19.4693C19.9404 15.917 20.3216 16.2986 20.3216 16.7691C20.3216 17.2396 19.9404 17.6214 19.4693 17.6214H6.82828C6.81374 17.6214 6.79899 17.621 6.78444 17.6202C5.56667 17.597 4.58061 16.6109 4.55737 15.3931C4.55677 15.3784 4.55636 15.3636 4.55636 15.3491C4.55636 14.758 4.78141 14.1836 5.1903 13.7317C5.59939 13.2798 6.14828 12.9986 6.73657 12.9398L7.14545 12.899L4.48384 3.70424H2.85212C2.38141 3.70424 2 3.32263 2 2.85212C2 2.38162 2.38141 2 2.85212 2H5.12424C5.50364 2 5.83737 2.25091 5.94263 2.61515L6.42242 4.27212H19.4693C19.9404 4.27212 20.3216 4.65354 20.3216 5.12424V12.5089C20.3216 12.9469 19.9897 13.3131 19.5545 13.3568ZM18.6174 5.97636H6.91556L8.8697 12.7267L18.6174 11.7378V5.97636Z" fill="white"/>
        <path d="M4.98223 22C6.00189 22 6.82849 21.1734 6.82849 20.1537C6.82849 19.1341 6.00189 18.3075 4.98223 18.3075C3.96257 18.3075 3.13597 19.1341 3.13597 20.1537C3.13597 21.1734 3.96257 22 4.98223 22Z" fill="white"/>
        <path d="M18.4754 22C19.495 22 20.3216 21.1734 20.3216 20.1537C20.3216 19.1341 19.495 18.3075 18.4754 18.3075C17.4557 18.3075 16.6291 19.1341 16.6291 20.1537C16.6291 21.1734 17.4557 22 18.4754 22Z" fill="white"/>
      </svg>
    </symbol>
    <symbol id="back-big"
      xmlns="http://www.w3.org/2000/svg">
      <svg width="24" height="25" viewBox="0 0 24 25" fill="none">
        <path fill-rule="evenodd" clip-rule="evenodd" d="M20 13.6246V11.8766H7.37343L12.6712 6.57883L11.4351 5.34277L4.90132 11.8766L4 12.7506L4.90132 13.6246L11.4351 20.1584L12.6712 18.9224L7.37343 13.6246H20Z" fill="black"/>
      </svg>
    </symbol>
    <symbol id="close"
        xmlns="http://www.w3.org/2000/svg">
      <svg width="24" height="24" viewBox="0 0 24 24" fill="none">
        <path d="M12 10.5902L6.40981 5L5 6.40981L10.5902 12L5.00005 17.5902L6.40986 19L12 13.4098L17.5901 19L19 17.5901L13.4098 12L19 6.40986L17.5902 5.00005L12 10.5902Z" fill="black"/>
      </svg>
    </symbol>
  </defs>
  </svg>